<?xml version="1.0" encoding="utf-8"?>
<!-- Generator: Adobe Illustrator 16.0.3, SVG Export Plug-In . SVG Version: 6.00 Build 0)  -->
<!DOCTYPE svg PUBLIC "-//W3C//DTD SVG 1.1//EN" "http://www.w3.org/Graphics/SVG/1.1/DTD/svg11.dtd">
<svg version="1.1" id="Capa_1" xmlns="http://www.w3.org/2000/svg" xmlns:xlink="http://www.w3.org/1999/xlink" x="0px" y="0px"
	 width="96.946px" height="61.8px" viewBox="0 0 96.946 61.8" enable-background="new 0 0 96.946 61.8" xml:space="preserve">
<g>
	<path d="M4.15,22.865C1.677,20.395,0,17.038,0,13.243C0,5.915,5.916,0,13.245,0c3.796,0,7.151,1.589,9.534,4.061l19.779,20.041
		c1.501,1.504,3.708,2.388,6.003,2.388c2.384,0,4.591-0.975,6.182-2.563L73.99,4.238C76.461,1.676,79.904,0,83.704,0
		c7.329,0,13.242,5.915,13.242,13.243c0,3.795-1.681,7.152-4.148,9.623L57.479,57.919c-2.385,2.385-5.65,3.881-9.272,3.881
		c-3.621,0-6.976-1.589-9.358-3.968L4.15,22.865z"/>
</g>
</svg>
