<?xml version="1.0" encoding="utf-8"?>
<!-- Generator: Adobe Illustrator 16.0.3, SVG Export Plug-In . SVG Version: 6.00 Build 0)  -->
<!DOCTYPE svg PUBLIC "-//W3C//DTD SVG 1.1//EN" "http://www.w3.org/Graphics/SVG/1.1/DTD/svg11.dtd">
<svg version="1.1" id="Capa_1" xmlns="http://www.w3.org/2000/svg" xmlns:xlink="http://www.w3.org/1999/xlink" x="0px" y="0px"
	 width="22.465px" height="34.125px" viewBox="0 0 22.465 34.125" enable-background="new 0 0 22.465 34.125" xml:space="preserve">
<g>
	<path fill="#FFFFFF" d="M9.235,32.715c-0.84,0.842-1.98,1.41-3.271,1.41c-2.49,0-4.499-2.008-4.499-4.501
		c0-1.288,0.539-2.431,1.38-3.239l6.81-6.719c0.51-0.512,0.811-1.261,0.811-2.041c0-0.809-0.33-1.561-0.87-2.101l-6.69-6.541
		c-0.871-0.84-1.44-2.01-1.44-3.3c0-2.49,2.009-4.5,4.499-4.5c1.291,0,2.431,0.569,3.271,1.409l11.913,12.002
		c0.809,0.81,1.317,1.92,1.317,3.148c0,1.232-0.54,2.371-1.35,3.184L9.235,32.715z"/>
</g>
</svg>
